<mxfile host="65bd71144e">
    <diagram id="5DKYwLtZOvD9sapzSiPz" name="Page-1">
        <mxGraphModel dx="758" dy="607" grid="1" gridSize="10" guides="1" tooltips="1" connect="1" arrows="1" fold="1" page="1" pageScale="1" pageWidth="827" pageHeight="1169" math="0" shadow="0">
            <root>
                <mxCell id="0"/>
                <mxCell id="1" parent="0"/>
                <mxCell id="41" value="MUESTRA y ALMACENA TIPO DE PAGO" style="text;html=1;resizable=0;autosize=1;align=center;verticalAlign=middle;points=[];rounded=0;fillColor=#008a00;fontColor=#ffffff;strokeColor=#005700;" parent="1" vertex="1">
                    <mxGeometry x="240" y="70" width="240" height="20" as="geometry"/>
                </mxCell>
                <mxCell id="70" value="" style="shape=table;startSize=0;container=1;collapsible=0;childLayout=tableLayout;" parent="1" vertex="1">
                    <mxGeometry x="60" y="110" width="660" height="600" as="geometry"/>
                </mxCell>
                <mxCell id="71" value="" style="shape=partialRectangle;collapsible=0;dropTarget=0;pointerEvents=0;fillColor=none;top=0;left=0;bottom=0;right=0;points=[[0,0.5],[1,0.5]];portConstraint=eastwest;" parent="70" vertex="1">
                    <mxGeometry width="660" height="45" as="geometry"/>
                </mxCell>
                <mxCell id="72" value="Empleado&amp;nbsp;" style="shape=partialRectangle;html=1;whiteSpace=wrap;connectable=0;overflow=hidden;fillColor=none;top=0;left=0;bottom=0;right=0;pointerEvents=1;" parent="71" vertex="1">
                    <mxGeometry width="220" height="45" as="geometry">
                        <mxRectangle width="220" height="45" as="alternateBounds"/>
                    </mxGeometry>
                </mxCell>
                <mxCell id="73" value="interfaz de usuario" style="shape=partialRectangle;html=1;whiteSpace=wrap;connectable=0;overflow=hidden;fillColor=none;top=0;left=0;bottom=0;right=0;pointerEvents=1;" parent="71" vertex="1">
                    <mxGeometry x="220" width="220" height="45" as="geometry">
                        <mxRectangle width="220" height="45" as="alternateBounds"/>
                    </mxGeometry>
                </mxCell>
                <mxCell id="74" value="logica de negocio" style="shape=partialRectangle;html=1;whiteSpace=wrap;connectable=0;overflow=hidden;fillColor=none;top=0;left=0;bottom=0;right=0;pointerEvents=1;" parent="71" vertex="1">
                    <mxGeometry x="440" width="220" height="45" as="geometry">
                        <mxRectangle width="220" height="45" as="alternateBounds"/>
                    </mxGeometry>
                </mxCell>
                <mxCell id="75" value="" style="shape=partialRectangle;collapsible=0;dropTarget=0;pointerEvents=0;fillColor=none;top=0;left=0;bottom=0;right=0;points=[[0,0.5],[1,0.5]];portConstraint=eastwest;" parent="70" vertex="1">
                    <mxGeometry y="45" width="660" height="555" as="geometry"/>
                </mxCell>
                <mxCell id="76" value="" style="shape=partialRectangle;html=1;whiteSpace=wrap;connectable=0;overflow=hidden;fillColor=none;top=0;left=0;bottom=0;right=0;pointerEvents=1;" parent="75" vertex="1">
                    <mxGeometry width="220" height="555" as="geometry">
                        <mxRectangle width="220" height="555" as="alternateBounds"/>
                    </mxGeometry>
                </mxCell>
                <mxCell id="77" value="" style="shape=partialRectangle;html=1;whiteSpace=wrap;connectable=0;overflow=hidden;fillColor=none;top=0;left=0;bottom=0;right=0;pointerEvents=1;" parent="75" vertex="1">
                    <mxGeometry x="220" width="220" height="555" as="geometry">
                        <mxRectangle width="220" height="555" as="alternateBounds"/>
                    </mxGeometry>
                </mxCell>
                <mxCell id="78" value="" style="shape=partialRectangle;html=1;whiteSpace=wrap;connectable=0;overflow=hidden;fillColor=none;top=0;left=0;bottom=0;right=0;pointerEvents=1;" parent="75" vertex="1">
                    <mxGeometry x="440" width="220" height="555" as="geometry">
                        <mxRectangle width="220" height="555" as="alternateBounds"/>
                    </mxGeometry>
                </mxCell>
                <mxCell id="79" style="edgeStyle=none;html=1;entryX=0;entryY=0.5;entryDx=0;entryDy=0;" parent="1" source="80" edge="1">
                    <mxGeometry relative="1" as="geometry">
                        <mxPoint x="120" y="190" as="targetPoint"/>
                    </mxGeometry>
                </mxCell>
                <mxCell id="80" value="" style="ellipse;html=1;fillColor=#FFFFFF;" parent="1" vertex="1">
                    <mxGeometry x="70" y="175" width="30" height="30" as="geometry"/>
                </mxCell>
                <mxCell id="81" value="" style="ellipse;html=1;shape=endState;fillColor=#000000;strokeColor=#ff0000;" parent="1" vertex="1">
                    <mxGeometry x="110" y="600" width="30" height="30" as="geometry"/>
                </mxCell>
                <mxCell id="116" style="edgeStyle=none;html=1;entryX=0.75;entryY=0.5;entryDx=0;entryDy=0;entryPerimeter=0;" parent="1" source="83" target="134" edge="1">
                    <mxGeometry relative="1" as="geometry">
                        <mxPoint x="270" y="200" as="targetPoint"/>
                    </mxGeometry>
                </mxCell>
                <mxCell id="83" value="&lt;font color=&quot;#000000&quot;&gt;selcciona tipo&lt;br&gt;&amp;nbsp;de pago&amp;nbsp;&lt;/font&gt;" style="html=1;align=center;verticalAlign=middle;rounded=1;absoluteArcSize=1;arcSize=10;dashed=0;fillColor=#FFFFFF;" parent="1" vertex="1">
                    <mxGeometry x="120" y="165" width="110" height="50" as="geometry"/>
                </mxCell>
                <mxCell id="104" style="edgeStyle=none;html=1;entryX=0.5;entryY=0;entryDx=0;entryDy=0;" parent="1" source="85" target="96" edge="1">
                    <mxGeometry relative="1" as="geometry"/>
                </mxCell>
                <mxCell id="85" value="&lt;font color=&quot;#000000&quot;&gt;Ingresa metodo&lt;br&gt;de pago&amp;nbsp;&lt;/font&gt;" style="html=1;align=center;verticalAlign=middle;rounded=1;absoluteArcSize=1;arcSize=10;dashed=0;fillColor=#FFFFFF;" parent="1" vertex="1">
                    <mxGeometry x="359" y="184.5" width="110" height="50" as="geometry"/>
                </mxCell>
                <mxCell id="136" style="edgeStyle=none;html=1;entryX=1;entryY=0.5;entryDx=0;entryDy=0;" edge="1" parent="1" source="92" target="94">
                    <mxGeometry relative="1" as="geometry">
                        <Array as="points">
                            <mxPoint x="605" y="500"/>
                        </Array>
                    </mxGeometry>
                </mxCell>
                <mxCell id="92" value="&lt;font color=&quot;#000000&quot;&gt;Registra tipo de pago&lt;/font&gt;" style="html=1;align=center;verticalAlign=middle;rounded=1;absoluteArcSize=1;arcSize=10;dashed=0;fillColor=#FFFFFF;" parent="1" vertex="1">
                    <mxGeometry x="540" y="350" width="130" height="60" as="geometry"/>
                </mxCell>
                <mxCell id="131" style="edgeStyle=none;html=1;entryX=1;entryY=0.5;entryDx=0;entryDy=0;" parent="1" source="94" target="81" edge="1">
                    <mxGeometry relative="1" as="geometry">
                        <Array as="points">
                            <mxPoint x="404" y="615"/>
                            <mxPoint x="260" y="615"/>
                        </Array>
                        <mxPoint x="190" y="615" as="targetPoint"/>
                    </mxGeometry>
                </mxCell>
                <mxCell id="94" value="&lt;font color=&quot;#000000&quot;&gt;Mensaje de &lt;br&gt;confirmacion&amp;nbsp;&lt;/font&gt;" style="html=1;align=center;verticalAlign=middle;rounded=1;absoluteArcSize=1;arcSize=10;dashed=0;fillColor=#FFFFFF;" parent="1" vertex="1">
                    <mxGeometry x="339" y="470" width="130" height="60" as="geometry"/>
                </mxCell>
                <mxCell id="106" style="edgeStyle=none;html=1;entryX=0.5;entryY=0;entryDx=0;entryDy=0;" parent="1" source="96" target="105" edge="1">
                    <mxGeometry relative="1" as="geometry"/>
                </mxCell>
                <mxCell id="96" value="&lt;font color=&quot;#000000&quot;&gt;Valida tipo de pago&lt;/font&gt;" style="html=1;align=center;verticalAlign=middle;rounded=1;absoluteArcSize=1;arcSize=10;dashed=0;fillColor=#FFFFFF;" parent="1" vertex="1">
                    <mxGeometry x="341.5" y="270" width="145" height="50" as="geometry"/>
                </mxCell>
                <mxCell id="107" style="edgeStyle=none;html=1;fillColor=#e51400;strokeColor=#B20000;entryX=0.25;entryY=0.5;entryDx=0;entryDy=0;entryPerimeter=0;" parent="1" source="105" target="134" edge="1">
                    <mxGeometry relative="1" as="geometry">
                        <Array as="points">
                            <mxPoint x="290" y="380"/>
                            <mxPoint x="290" y="230"/>
                        </Array>
                        <mxPoint x="300" y="240" as="targetPoint"/>
                    </mxGeometry>
                </mxCell>
                <mxCell id="129" value="NO" style="edgeLabel;html=1;align=center;verticalAlign=middle;resizable=0;points=[];" parent="107" vertex="1" connectable="0">
                    <mxGeometry x="-0.8867" relative="1" as="geometry">
                        <mxPoint as="offset"/>
                    </mxGeometry>
                </mxCell>
                <mxCell id="109" style="edgeStyle=none;html=1;entryX=0;entryY=0.5;entryDx=0;entryDy=0;fillColor=#d5e8d4;gradientColor=#97d077;strokeColor=#82b366;" parent="1" source="105" target="92" edge="1">
                    <mxGeometry relative="1" as="geometry">
                        <Array as="points"/>
                    </mxGeometry>
                </mxCell>
                <mxCell id="110" value="SI" style="edgeLabel;html=1;align=center;verticalAlign=middle;resizable=0;points=[];" parent="109" vertex="1" connectable="0">
                    <mxGeometry x="-0.7586" y="2" relative="1" as="geometry">
                        <mxPoint as="offset"/>
                    </mxGeometry>
                </mxCell>
                <mxCell id="105" value="&lt;span style=&quot;color: rgb(0 , 0 , 0)&quot;&gt;Es valido&amp;nbsp;&lt;/span&gt;" style="rhombus;whiteSpace=wrap;html=1;fillColor=#ffffc0;strokeColor=#ff0000;" parent="1" vertex="1">
                    <mxGeometry x="369" y="355" width="90" height="50" as="geometry"/>
                </mxCell>
                <mxCell id="135" style="edgeStyle=none;html=1;entryX=0;entryY=0.5;entryDx=0;entryDy=0;" edge="1" parent="1" source="134" target="85">
                    <mxGeometry relative="1" as="geometry"/>
                </mxCell>
                <mxCell id="134" value="" style="shape=line;html=1;strokeWidth=6;strokeColor=#ff0000;rotation=-90;" vertex="1" parent="1">
                    <mxGeometry x="278.5" y="204.5" width="81" height="10" as="geometry"/>
                </mxCell>
            </root>
        </mxGraphModel>
    </diagram>
</mxfile>